<svg width="18" height="17" viewBox="0 0 18 17" fill="none" xmlns="http://www.w3.org/2000/svg">
<g clip-path="url(#clip0_2_1329)">
<g clip-path="url(#clip1_2_1329)">
<g clip-path="url(#clip2_2_1329)">
<path d="M8.78704 0C6.47904 0 6.18904 0 5.28204 0.05C4.37804 0.091 3.76104 0.236 3.22204 0.445C2.66204 0.661 2.18904 1 1.71704 1.427C1.24504 1.9 1.00004 2.375 0.735039 2.932C0.526039 3.472 0.381039 4.089 0.341039 5C0.300039 5.9 0.290039 6.19 0.290039 8.499C0.290039 10.806 0.300039 11.096 0.340039 12C0.381039 12.908 0.526039 13.525 0.735039 14.068C1.00004 14.628 1.24504 15.101 1.71704 15.573C2.18904 16 2.66504 16.335 3.22104 16.555C3.76104 16.764 4.37804 16.909 5.28504 16.949C6.19304 17 6.48004 17 8.79004 17C11.1 17 11.387 17 12.295 16.95C13.199 16.909 13.815 16.764 14.359 16.555C14.919 16.339 15.391 16 15.863 15.573C16.335 15.101 16.626 14.625 16.845 14.068C17.054 13.528 17.199 12.911 17.239 12C17.279 11.096 17.29 10.81 17.29 8.499C17.29 6.187 17.28 5.9 17.24 5C17.199 4.089 17.054 3.472 16.845 2.928C16.6317 2.36084 16.2965 1.84743 15.863 1.424C15.391 1 14.915 0.66 14.36 0.442C13.82 0.232 13.203 0.088 12.296 0H8.78704ZM8.78704 1.532C11.057 1.532 11.323 1.542 12.22 1.582C13.05 1.619 13.499 1.758 13.799 1.876C14.197 2 14.48 2.213 14.777 2.51C15.074 2.807 15.259 3.09 15.411 3.488C15.526 3.788 15.668 4.238 15.705 5.068C15.745 6 15.755 6.231 15.755 8.501C15.755 10.772 15.745 11 15.705 11.936C15.668 12.766 15.529 13.215 15.411 13.516C15.2751 13.8848 15.0585 14.2186 14.777 14.493C14.48 14.79 14.197 15 13.799 15.127C13.499 15.242 13.05 15.384 12.22 15.421C11.323 15.461 11.057 15.471 8.78704 15.471C6.51704 15.471 6.25004 15.461 5.35304 15.421C4.52304 15.384 4.07504 15.246 3.77404 15.127C3.37604 15 3.09304 14.79 2.79604 14.493C2.51331 14.2193 2.29651 13.8848 2.16204 13.515C2.00004 13.215 1.90604 12.766 1.86904 11.936C1.82904 11 1.81804 10.772 1.81804 8.501C1.81804 6.231 1.82804 6 1.86804 5.067C1.90604 4.237 2.00004 3.789 2.16204 3.488C2.31704 3.09 2.49904 2.808 2.79604 2.51C3.09304 2.213 3.37604 2 3.77404 1.876C4.07404 1.761 4.52404 1.619 5.35304 1.582C6.25004 1.539 6.51704 1.532 8.78704 1.532Z" fill="white"/>
<path d="M8.79004 11.421C8.01547 11.421 7.27263 11.1133 6.72493 10.5656C6.17723 10.0179 5.86954 9.27506 5.86954 8.5005C5.86954 7.72593 6.17723 6.98309 6.72493 6.43539C7.27263 5.88769 8.01547 5.58 8.79004 5.58C9.5646 5.58 10.3074 5.88769 10.8551 6.43539C11.4028 6.98309 11.7105 7.72593 11.7105 8.5005C11.7105 9.27506 11.4028 10.0179 10.8551 10.5656C10.3074 11.1133 9.5646 11.421 8.79004 11.421ZM8.79004 4C6.30704 4 4.29004 6 4.29004 8.5C4.29004 11 6.30704 13 8.79004 13C11.273 13 13.29 11 13.29 8.5C13.29 6 11.273 4 8.79004 4Z" fill="white"/>
<path d="M13.29 5C13.5553 5 13.8096 4.89464 13.9971 4.70711C14.1847 4.51957 14.29 4.26522 14.29 4C14.29 3.73478 14.1847 3.48043 13.9971 3.29289C13.8096 3.10536 13.5553 3 13.29 3C13.0248 3 12.7705 3.10536 12.5829 3.29289C12.3954 3.48043 12.29 3.73478 12.29 4C12.29 4.26522 12.3954 4.51957 12.5829 4.70711C12.7705 4.89464 13.0248 5 13.29 5Z" fill="white"/>
</g>
</g>
</g>
<defs>
<clipPath id="clip0_2_1329">
<rect width="18" height="17" fill="white"/>
</clipPath>
<clipPath id="clip1_2_1329">
<rect width="18" height="17" fill="white"/>
</clipPath>
<clipPath id="clip2_2_1329">
<rect width="18" height="17" fill="white"/>
</clipPath>
</defs>
</svg>
