<svg width="20" height="29" viewBox="0 0 20 29" fill="none" xmlns="http://www.w3.org/2000/svg">
<path d="M10.2836 22.7566L2.08047 14.28L10.3227 5.74487C10.4789 5.56258 10.5505 5.35425 10.5375 5.11987C10.5245 4.8855 10.4398 4.6967 10.2836 4.55347C10.1273 4.39722 9.92552 4.31909 9.67812 4.31909C9.43073 4.31909 9.22239 4.39722 9.05312 4.55347L0.244531 13.6746C0.0882813 13.8438 0.00690104 14.0424 0.000390625 14.2703C-0.00611979 14.4981 0.06875 14.7032 0.225 14.8855L9.05312 24.0066C9.13125 24.0977 9.22239 24.1628 9.32656 24.2019C9.43073 24.241 9.54141 24.2605 9.65859 24.2605C9.77578 24.2605 9.8832 24.241 9.98086 24.2019C10.0785 24.1628 10.1664 24.1042 10.2445 24.0261C10.3227 23.948 10.3878 23.8601 10.4398 23.7625C10.4919 23.6648 10.5245 23.5574 10.5375 23.4402V23.4011C10.5375 23.2839 10.5147 23.17 10.4691 23.0593C10.4236 22.9486 10.3617 22.8477 10.2836 22.7566Z" fill="white"/>
</svg>
